<?xml version="1.0" encoding="utf-8" standalone="no"?>
<!DOCTYPE svg PUBLIC "-//W3C//DTD SVG 1.1//EN"
  "http://www.w3.org/Graphics/SVG/1.1/DTD/svg11.dtd">
<!-- Created with matplotlib (https://matplotlib.org/) -->
<svg height="586.791875pt" version="1.1" viewBox="0 0 790.684688 586.791875" width="790.684688pt" xmlns="http://www.w3.org/2000/svg" xmlns:xlink="http://www.w3.org/1999/xlink">
 <defs>
  <style type="text/css">
*{stroke-linecap:butt;stroke-linejoin:round;}
  </style>
 </defs>
 <g id="figure_1">
  <g id="patch_1">
   <path d="M 0 586.791875 
L 790.684688 586.791875 
L 790.684688 -0 
L 0 -0 
z
" style="fill:none;"/>
  </g>
  <g id="axes_1">
   <g id="patch_2">
    <path d="M 31.804688 550.8 
L 783.484687 550.8 
L 783.484687 7.2 
L 31.804688 7.2 
z
" style="fill:#f0f0f0;"/>
   </g>
   <g id="matplotlib.axis_1">
    <g id="xtick_1">
     <g id="line2d_1">
      <path clip-path="url(#p323aed4785)" d="M 31.804688 550.8 
L 31.804688 7.2 
" style="fill:none;stroke:#cbcbcb;"/>
     </g>
     <g id="line2d_2"/>
    </g>
    <g id="xtick_2">
     <g id="line2d_3">
      <path clip-path="url(#p323aed4785)" d="M 110.165151 550.8 
L 110.165151 7.2 
" style="fill:none;stroke:#cbcbcb;"/>
     </g>
     <g id="line2d_4"/>
     <g id="text_1">
      <!-- 2016 -->
      <defs>
       <path d="M 19.1875 8.296875 
L 53.609375 8.296875 
L 53.609375 0 
L 7.328125 0 
L 7.328125 8.296875 
Q 12.9375 14.109375 22.625 23.890625 
Q 32.328125 33.6875 34.8125 36.53125 
Q 39.546875 41.84375 41.421875 45.53125 
Q 43.3125 49.21875 43.3125 52.78125 
Q 43.3125 58.59375 39.234375 62.25 
Q 35.15625 65.921875 28.609375 65.921875 
Q 23.96875 65.921875 18.8125 64.3125 
Q 13.671875 62.703125 7.8125 59.421875 
L 7.8125 69.390625 
Q 13.765625 71.78125 18.9375 73 
Q 24.125 74.21875 28.421875 74.21875 
Q 39.75 74.21875 46.484375 68.546875 
Q 53.21875 62.890625 53.21875 53.421875 
Q 53.21875 48.921875 51.53125 44.890625 
Q 49.859375 40.875 45.40625 35.40625 
Q 44.1875 33.984375 37.640625 27.21875 
Q 31.109375 20.453125 19.1875 8.296875 
z
" id="DejaVuSans-50"/>
       <path d="M 31.78125 66.40625 
Q 24.171875 66.40625 20.328125 58.90625 
Q 16.5 51.421875 16.5 36.375 
Q 16.5 21.390625 20.328125 13.890625 
Q 24.171875 6.390625 31.78125 6.390625 
Q 39.453125 6.390625 43.28125 13.890625 
Q 47.125 21.390625 47.125 36.375 
Q 47.125 51.421875 43.28125 58.90625 
Q 39.453125 66.40625 31.78125 66.40625 
z
M 31.78125 74.21875 
Q 44.046875 74.21875 50.515625 64.515625 
Q 56.984375 54.828125 56.984375 36.375 
Q 56.984375 17.96875 50.515625 8.265625 
Q 44.046875 -1.421875 31.78125 -1.421875 
Q 19.53125 -1.421875 13.0625 8.265625 
Q 6.59375 17.96875 6.59375 36.375 
Q 6.59375 54.828125 13.0625 64.515625 
Q 19.53125 74.21875 31.78125 74.21875 
z
" id="DejaVuSans-48"/>
       <path d="M 12.40625 8.296875 
L 28.515625 8.296875 
L 28.515625 63.921875 
L 10.984375 60.40625 
L 10.984375 69.390625 
L 28.421875 72.90625 
L 38.28125 72.90625 
L 38.28125 8.296875 
L 54.390625 8.296875 
L 54.390625 0 
L 12.40625 0 
z
" id="DejaVuSans-49"/>
       <path d="M 33.015625 40.375 
Q 26.375 40.375 22.484375 35.828125 
Q 18.609375 31.296875 18.609375 23.390625 
Q 18.609375 15.53125 22.484375 10.953125 
Q 26.375 6.390625 33.015625 6.390625 
Q 39.65625 6.390625 43.53125 10.953125 
Q 47.40625 15.53125 47.40625 23.390625 
Q 47.40625 31.296875 43.53125 35.828125 
Q 39.65625 40.375 33.015625 40.375 
z
M 52.59375 71.296875 
L 52.59375 62.3125 
Q 48.875 64.0625 45.09375 64.984375 
Q 41.3125 65.921875 37.59375 65.921875 
Q 27.828125 65.921875 22.671875 59.328125 
Q 17.53125 52.734375 16.796875 39.40625 
Q 19.671875 43.65625 24.015625 45.921875 
Q 28.375 48.1875 33.59375 48.1875 
Q 44.578125 48.1875 50.953125 41.515625 
Q 57.328125 34.859375 57.328125 23.390625 
Q 57.328125 12.15625 50.6875 5.359375 
Q 44.046875 -1.421875 33.015625 -1.421875 
Q 20.359375 -1.421875 13.671875 8.265625 
Q 6.984375 17.96875 6.984375 36.375 
Q 6.984375 53.65625 15.1875 63.9375 
Q 23.390625 74.21875 37.203125 74.21875 
Q 40.921875 74.21875 44.703125 73.484375 
Q 48.484375 72.75 52.59375 71.296875 
z
" id="DejaVuSans-54"/>
      </defs>
      <g transform="translate(97.440151 561.898438)scale(0.1 -0.1)">
       <use xlink:href="#DejaVuSans-50"/>
       <use x="63.623047" xlink:href="#DejaVuSans-48"/>
       <use x="127.246094" xlink:href="#DejaVuSans-49"/>
       <use x="190.869141" xlink:href="#DejaVuSans-54"/>
      </g>
     </g>
    </g>
    <g id="xtick_3">
     <g id="line2d_5">
      <path clip-path="url(#p323aed4785)" d="M 261.081599 550.8 
L 261.081599 7.2 
" style="fill:none;stroke:#cbcbcb;"/>
     </g>
     <g id="line2d_6"/>
     <g id="text_2">
      <!-- 2017 -->
      <defs>
       <path d="M 8.203125 72.90625 
L 55.078125 72.90625 
L 55.078125 68.703125 
L 28.609375 0 
L 18.3125 0 
L 43.21875 64.59375 
L 8.203125 64.59375 
z
" id="DejaVuSans-55"/>
      </defs>
      <g transform="translate(248.356599 561.898438)scale(0.1 -0.1)">
       <use xlink:href="#DejaVuSans-50"/>
       <use x="63.623047" xlink:href="#DejaVuSans-48"/>
       <use x="127.246094" xlink:href="#DejaVuSans-49"/>
       <use x="190.869141" xlink:href="#DejaVuSans-55"/>
      </g>
     </g>
    </g>
    <g id="xtick_4">
     <g id="line2d_7">
      <path clip-path="url(#p323aed4785)" d="M 414.900286 550.8 
L 414.900286 7.2 
" style="fill:none;stroke:#cbcbcb;"/>
     </g>
     <g id="line2d_8"/>
     <g id="text_3">
      <!-- 2018 -->
      <defs>
       <path d="M 31.78125 34.625 
Q 24.75 34.625 20.71875 30.859375 
Q 16.703125 27.09375 16.703125 20.515625 
Q 16.703125 13.921875 20.71875 10.15625 
Q 24.75 6.390625 31.78125 6.390625 
Q 38.8125 6.390625 42.859375 10.171875 
Q 46.921875 13.96875 46.921875 20.515625 
Q 46.921875 27.09375 42.890625 30.859375 
Q 38.875 34.625 31.78125 34.625 
z
M 21.921875 38.8125 
Q 15.578125 40.375 12.03125 44.71875 
Q 8.5 49.078125 8.5 55.328125 
Q 8.5 64.0625 14.71875 69.140625 
Q 20.953125 74.21875 31.78125 74.21875 
Q 42.671875 74.21875 48.875 69.140625 
Q 55.078125 64.0625 55.078125 55.328125 
Q 55.078125 49.078125 51.53125 44.71875 
Q 48 40.375 41.703125 38.8125 
Q 48.828125 37.15625 52.796875 32.3125 
Q 56.78125 27.484375 56.78125 20.515625 
Q 56.78125 9.90625 50.3125 4.234375 
Q 43.84375 -1.421875 31.78125 -1.421875 
Q 19.734375 -1.421875 13.25 4.234375 
Q 6.78125 9.90625 6.78125 20.515625 
Q 6.78125 27.484375 10.78125 32.3125 
Q 14.796875 37.15625 21.921875 38.8125 
z
M 18.3125 54.390625 
Q 18.3125 48.734375 21.84375 45.5625 
Q 25.390625 42.390625 31.78125 42.390625 
Q 38.140625 42.390625 41.71875 45.5625 
Q 45.3125 48.734375 45.3125 54.390625 
Q 45.3125 60.0625 41.71875 63.234375 
Q 38.140625 66.40625 31.78125 66.40625 
Q 25.390625 66.40625 21.84375 63.234375 
Q 18.3125 60.0625 18.3125 54.390625 
z
" id="DejaVuSans-56"/>
      </defs>
      <g transform="translate(402.175286 561.898438)scale(0.1 -0.1)">
       <use xlink:href="#DejaVuSans-50"/>
       <use x="63.623047" xlink:href="#DejaVuSans-48"/>
       <use x="127.246094" xlink:href="#DejaVuSans-49"/>
       <use x="190.869141" xlink:href="#DejaVuSans-56"/>
      </g>
     </g>
    </g>
    <g id="xtick_5">
     <g id="line2d_9">
      <path clip-path="url(#p323aed4785)" d="M 565.816734 550.8 
L 565.816734 7.2 
" style="fill:none;stroke:#cbcbcb;"/>
     </g>
     <g id="line2d_10"/>
     <g id="text_4">
      <!-- 2019 -->
      <defs>
       <path d="M 10.984375 1.515625 
L 10.984375 10.5 
Q 14.703125 8.734375 18.5 7.8125 
Q 22.3125 6.890625 25.984375 6.890625 
Q 35.75 6.890625 40.890625 13.453125 
Q 46.046875 20.015625 46.78125 33.40625 
Q 43.953125 29.203125 39.59375 26.953125 
Q 35.25 24.703125 29.984375 24.703125 
Q 19.046875 24.703125 12.671875 31.3125 
Q 6.296875 37.9375 6.296875 49.421875 
Q 6.296875 60.640625 12.9375 67.421875 
Q 19.578125 74.21875 30.609375 74.21875 
Q 43.265625 74.21875 49.921875 64.515625 
Q 56.59375 54.828125 56.59375 36.375 
Q 56.59375 19.140625 48.40625 8.859375 
Q 40.234375 -1.421875 26.421875 -1.421875 
Q 22.703125 -1.421875 18.890625 -0.6875 
Q 15.09375 0.046875 10.984375 1.515625 
z
M 30.609375 32.421875 
Q 37.25 32.421875 41.125 36.953125 
Q 45.015625 41.5 45.015625 49.421875 
Q 45.015625 57.28125 41.125 61.84375 
Q 37.25 66.40625 30.609375 66.40625 
Q 23.96875 66.40625 20.09375 61.84375 
Q 16.21875 57.28125 16.21875 49.421875 
Q 16.21875 41.5 20.09375 36.953125 
Q 23.96875 32.421875 30.609375 32.421875 
z
" id="DejaVuSans-57"/>
      </defs>
      <g transform="translate(553.091734 561.898438)scale(0.1 -0.1)">
       <use xlink:href="#DejaVuSans-50"/>
       <use x="63.623047" xlink:href="#DejaVuSans-48"/>
       <use x="127.246094" xlink:href="#DejaVuSans-49"/>
       <use x="190.869141" xlink:href="#DejaVuSans-57"/>
      </g>
     </g>
    </g>
    <g id="xtick_6">
     <g id="line2d_11">
      <path clip-path="url(#p323aed4785)" d="M 716.733182 550.8 
L 716.733182 7.2 
" style="fill:none;stroke:#cbcbcb;"/>
     </g>
     <g id="line2d_12"/>
     <g id="text_5">
      <!-- 2020 -->
      <g transform="translate(704.008182 561.898438)scale(0.1 -0.1)">
       <use xlink:href="#DejaVuSans-50"/>
       <use x="63.623047" xlink:href="#DejaVuSans-48"/>
       <use x="127.246094" xlink:href="#DejaVuSans-50"/>
       <use x="190.869141" xlink:href="#DejaVuSans-48"/>
      </g>
     </g>
    </g>
    <g id="xtick_7">
     <g id="line2d_13">
      <path clip-path="url(#p323aed4785)" d="M 783.484688 550.8 
L 783.484688 7.2 
" style="fill:none;stroke:#cbcbcb;"/>
     </g>
     <g id="line2d_14"/>
    </g>
    <g id="xtick_8">
     <g id="line2d_15"/>
    </g>
    <g id="xtick_9">
     <g id="line2d_16"/>
    </g>
    <g id="xtick_10">
     <g id="line2d_17"/>
    </g>
    <g id="xtick_11">
     <g id="line2d_18"/>
    </g>
    <g id="xtick_12">
     <g id="line2d_19"/>
    </g>
    <g id="xtick_13">
     <g id="line2d_20"/>
    </g>
    <g id="xtick_14">
     <g id="line2d_21"/>
    </g>
    <g id="xtick_15">
     <g id="line2d_22"/>
    </g>
    <g id="xtick_16">
     <g id="line2d_23"/>
    </g>
    <g id="xtick_17">
     <g id="line2d_24"/>
    </g>
    <g id="xtick_18">
     <g id="line2d_25"/>
    </g>
    <g id="xtick_19">
     <g id="line2d_26"/>
    </g>
    <g id="xtick_20">
     <g id="line2d_27"/>
    </g>
    <g id="xtick_21">
     <g id="line2d_28"/>
    </g>
    <g id="xtick_22">
     <g id="line2d_29"/>
    </g>
    <g id="text_6">
     <!-- date -->
     <defs>
      <path d="M 45.40625 46.390625 
L 45.40625 75.984375 
L 54.390625 75.984375 
L 54.390625 0 
L 45.40625 0 
L 45.40625 8.203125 
Q 42.578125 3.328125 38.25 0.953125 
Q 33.9375 -1.421875 27.875 -1.421875 
Q 17.96875 -1.421875 11.734375 6.484375 
Q 5.515625 14.40625 5.515625 27.296875 
Q 5.515625 40.1875 11.734375 48.09375 
Q 17.96875 56 27.875 56 
Q 33.9375 56 38.25 53.625 
Q 42.578125 51.265625 45.40625 46.390625 
z
M 14.796875 27.296875 
Q 14.796875 17.390625 18.875 11.75 
Q 22.953125 6.109375 30.078125 6.109375 
Q 37.203125 6.109375 41.296875 11.75 
Q 45.40625 17.390625 45.40625 27.296875 
Q 45.40625 37.203125 41.296875 42.84375 
Q 37.203125 48.484375 30.078125 48.484375 
Q 22.953125 48.484375 18.875 42.84375 
Q 14.796875 37.203125 14.796875 27.296875 
z
" id="DejaVuSans-100"/>
      <path d="M 34.28125 27.484375 
Q 23.390625 27.484375 19.1875 25 
Q 14.984375 22.515625 14.984375 16.5 
Q 14.984375 11.71875 18.140625 8.90625 
Q 21.296875 6.109375 26.703125 6.109375 
Q 34.1875 6.109375 38.703125 11.40625 
Q 43.21875 16.703125 43.21875 25.484375 
L 43.21875 27.484375 
z
M 52.203125 31.203125 
L 52.203125 0 
L 43.21875 0 
L 43.21875 8.296875 
Q 40.140625 3.328125 35.546875 0.953125 
Q 30.953125 -1.421875 24.3125 -1.421875 
Q 15.921875 -1.421875 10.953125 3.296875 
Q 6 8.015625 6 15.921875 
Q 6 25.140625 12.171875 29.828125 
Q 18.359375 34.515625 30.609375 34.515625 
L 43.21875 34.515625 
L 43.21875 35.40625 
Q 43.21875 41.609375 39.140625 45 
Q 35.0625 48.390625 27.6875 48.390625 
Q 23 48.390625 18.546875 47.265625 
Q 14.109375 46.140625 10.015625 43.890625 
L 10.015625 52.203125 
Q 14.9375 54.109375 19.578125 55.046875 
Q 24.21875 56 28.609375 56 
Q 40.484375 56 46.34375 49.84375 
Q 52.203125 43.703125 52.203125 31.203125 
z
" id="DejaVuSans-97"/>
      <path d="M 18.3125 70.21875 
L 18.3125 54.6875 
L 36.8125 54.6875 
L 36.8125 47.703125 
L 18.3125 47.703125 
L 18.3125 18.015625 
Q 18.3125 11.328125 20.140625 9.421875 
Q 21.96875 7.515625 27.59375 7.515625 
L 36.8125 7.515625 
L 36.8125 0 
L 27.59375 0 
Q 17.1875 0 13.234375 3.875 
Q 9.28125 7.765625 9.28125 18.015625 
L 9.28125 47.703125 
L 2.6875 47.703125 
L 2.6875 54.6875 
L 9.28125 54.6875 
L 9.28125 70.21875 
z
" id="DejaVuSans-116"/>
      <path d="M 56.203125 29.59375 
L 56.203125 25.203125 
L 14.890625 25.203125 
Q 15.484375 15.921875 20.484375 11.0625 
Q 25.484375 6.203125 34.421875 6.203125 
Q 39.59375 6.203125 44.453125 7.46875 
Q 49.3125 8.734375 54.109375 11.28125 
L 54.109375 2.78125 
Q 49.265625 0.734375 44.1875 -0.34375 
Q 39.109375 -1.421875 33.890625 -1.421875 
Q 20.796875 -1.421875 13.15625 6.1875 
Q 5.515625 13.8125 5.515625 26.8125 
Q 5.515625 40.234375 12.765625 48.109375 
Q 20.015625 56 32.328125 56 
Q 43.359375 56 49.78125 48.890625 
Q 56.203125 41.796875 56.203125 29.59375 
z
M 47.21875 32.234375 
Q 47.125 39.59375 43.09375 43.984375 
Q 39.0625 48.390625 32.421875 48.390625 
Q 24.90625 48.390625 20.390625 44.140625 
Q 15.875 39.890625 15.1875 32.171875 
z
" id="DejaVuSans-101"/>
     </defs>
     <g transform="translate(394.114688 577.09625)scale(0.12 -0.12)">
      <use xlink:href="#DejaVuSans-100"/>
      <use x="63.476562" xlink:href="#DejaVuSans-97"/>
      <use x="124.755859" xlink:href="#DejaVuSans-116"/>
      <use x="163.964844" xlink:href="#DejaVuSans-101"/>
     </g>
    </g>
   </g>
   <g id="matplotlib.axis_2">
    <g id="ytick_1">
     <g id="line2d_30">
      <path clip-path="url(#p323aed4785)" d="M 31.804688 468.771069 
L 783.484687 468.771069 
" style="fill:none;stroke:#cbcbcb;"/>
     </g>
     <g id="line2d_31"/>
     <g id="text_7">
      <!-- −10 -->
      <defs>
       <path d="M 10.59375 35.5 
L 73.1875 35.5 
L 73.1875 27.203125 
L 10.59375 27.203125 
z
" id="DejaVuSans-8722"/>
      </defs>
      <g transform="translate(7.2 472.570288)scale(0.1 -0.1)">
       <use xlink:href="#DejaVuSans-8722"/>
       <use x="83.789062" xlink:href="#DejaVuSans-49"/>
       <use x="147.412109" xlink:href="#DejaVuSans-48"/>
      </g>
     </g>
    </g>
    <g id="ytick_2">
     <g id="line2d_32">
      <path clip-path="url(#p323aed4785)" d="M 31.804688 372.566945 
L 783.484687 372.566945 
" style="fill:none;stroke:#cbcbcb;"/>
     </g>
     <g id="line2d_33"/>
     <g id="text_8">
      <!-- 0 -->
      <g transform="translate(21.942187 376.366164)scale(0.1 -0.1)">
       <use xlink:href="#DejaVuSans-48"/>
      </g>
     </g>
    </g>
    <g id="ytick_3">
     <g id="line2d_34">
      <path clip-path="url(#p323aed4785)" d="M 31.804688 276.36282 
L 783.484687 276.36282 
" style="fill:none;stroke:#cbcbcb;"/>
     </g>
     <g id="line2d_35"/>
     <g id="text_9">
      <!-- 10 -->
      <g transform="translate(15.579687 280.162039)scale(0.1 -0.1)">
       <use xlink:href="#DejaVuSans-49"/>
       <use x="63.623047" xlink:href="#DejaVuSans-48"/>
      </g>
     </g>
    </g>
    <g id="ytick_4">
     <g id="line2d_36">
      <path clip-path="url(#p323aed4785)" d="M 31.804688 180.158696 
L 783.484687 180.158696 
" style="fill:none;stroke:#cbcbcb;"/>
     </g>
     <g id="line2d_37"/>
     <g id="text_10">
      <!-- 20 -->
      <g transform="translate(15.579687 183.957915)scale(0.1 -0.1)">
       <use xlink:href="#DejaVuSans-50"/>
       <use x="63.623047" xlink:href="#DejaVuSans-48"/>
      </g>
     </g>
    </g>
    <g id="ytick_5">
     <g id="line2d_38">
      <path clip-path="url(#p323aed4785)" d="M 31.804688 83.954571 
L 783.484687 83.954571 
" style="fill:none;stroke:#cbcbcb;"/>
     </g>
     <g id="line2d_39"/>
     <g id="text_11">
      <!-- 30 -->
      <defs>
       <path d="M 40.578125 39.3125 
Q 47.65625 37.796875 51.625 33 
Q 55.609375 28.21875 55.609375 21.1875 
Q 55.609375 10.40625 48.1875 4.484375 
Q 40.765625 -1.421875 27.09375 -1.421875 
Q 22.515625 -1.421875 17.65625 -0.515625 
Q 12.796875 0.390625 7.625 2.203125 
L 7.625 11.71875 
Q 11.71875 9.328125 16.59375 8.109375 
Q 21.484375 6.890625 26.8125 6.890625 
Q 36.078125 6.890625 40.9375 10.546875 
Q 45.796875 14.203125 45.796875 21.1875 
Q 45.796875 27.640625 41.28125 31.265625 
Q 36.765625 34.90625 28.71875 34.90625 
L 20.21875 34.90625 
L 20.21875 43.015625 
L 29.109375 43.015625 
Q 36.375 43.015625 40.234375 45.921875 
Q 44.09375 48.828125 44.09375 54.296875 
Q 44.09375 59.90625 40.109375 62.90625 
Q 36.140625 65.921875 28.71875 65.921875 
Q 24.65625 65.921875 20.015625 65.03125 
Q 15.375 64.15625 9.8125 62.3125 
L 9.8125 71.09375 
Q 15.4375 72.65625 20.34375 73.4375 
Q 25.25 74.21875 29.59375 74.21875 
Q 40.828125 74.21875 47.359375 69.109375 
Q 53.90625 64.015625 53.90625 55.328125 
Q 53.90625 49.265625 50.4375 45.09375 
Q 46.96875 40.921875 40.578125 39.3125 
z
" id="DejaVuSans-51"/>
      </defs>
      <g transform="translate(15.579687 87.75379)scale(0.1 -0.1)">
       <use xlink:href="#DejaVuSans-51"/>
       <use x="63.623047" xlink:href="#DejaVuSans-48"/>
      </g>
     </g>
    </g>
   </g>
   <g id="line2d_40">
    <path clip-path="url(#p323aed4785)" d="M 31.804688 391.753827 
L 34.706927 351.62251 
L 37.609166 379.606199 
L 40.511406 350.582081 
L 43.413645 381.12602 
L 46.315884 358.063156 
L 49.218124 382.826901 
L 52.120363 370.902857 
L 55.022603 402.151077 
L 57.924842 371.561646 
L 60.827081 379.215619 
L 63.729321 375.921685 
L 66.63156 381.44514 
L 69.533799 391.299131 
L 72.436039 373.264331 
L 75.338278 378.306671 
L 78.240518 374.477507 
L 81.142757 372.167166 
L 84.044996 363.113843 
L 86.947236 421.394479 
L 89.849475 375.79728 
L 92.751715 430.470895 
L 95.653954 318.893992 
L 98.556193 417.748667 
L 101.458433 400.353347 
L 104.360672 397.628446 
L 107.262911 182.743373 
L 110.165151 226.085389 
L 113.06739 436.334406 
L 115.96963 318.106545 
L 118.871869 398.923017 
L 121.774108 388.205015 
L 124.676348 423.14378 
L 127.578587 371.46205 
L 130.480826 355.189346 
L 133.383066 371.00375 
L 136.285305 365.109785 
L 139.187545 386.670101 
L 142.089784 389.724244 
L 144.992023 356.247919 
L 147.894263 342.396446 
L 150.796502 391.962378 
L 153.698742 349.461085 
L 156.600981 383.897002 
L 159.50322 391.459147 
L 162.40546 380.862551 
L 165.307699 349.111923 
L 168.209938 427.196119 
L 171.112178 362.240842 
L 174.014417 371.349605 
L 176.916657 427.694915 
L 179.818896 374.320663 
L 182.721135 382.957773 
L 185.623375 370.964739 
L 188.525614 353.912289 
L 191.427854 372.097317 
L 194.330093 357.188064 
L 197.232332 371.313589 
L 200.134572 360.856655 
L 203.036811 400.816339 
L 205.93905 367.988993 
L 208.84129 378.33853 
L 211.743529 385.64896 
L 214.645769 370.913202 
L 217.548008 394.445994 
L 220.450247 372.012944 
L 223.352487 396.221106 
L 226.254726 382.852884 
L 229.156965 366.34148 
L 232.059205 397.325422 
L 234.961444 369.210517 
L 237.863684 395.354943 
L 240.765923 334.975473 
L 243.668162 456.77609 
L 246.570402 291.832446 
L 249.472641 411.264414 
L 252.374881 412.489478 
L 255.27712 401.737364 
L 261.081599 135.919771 
L 263.983838 426.933824 
L 266.886077 329.152974 
L 269.788317 385.72373 
L 272.690556 304.20881 
L 275.592796 290.376343 
L 278.495035 506.677446 
L 281.397274 288.461261 
L 284.299514 421.569173 
L 287.201753 398.452029 
L 290.103993 385.903684 
L 293.006232 390.106771 
L 295.908471 368.073807 
L 298.810711 425.737358 
L 301.71295 376.685294 
L 304.615189 353.518521 
L 307.517429 383.084151 
L 310.419668 355.679587 
L 313.321908 379.971901 
L 316.224147 379.763969 
L 319.126386 372.602965 
L 322.028626 385.798608 
L 324.930865 362.84383 
L 327.833104 414.02033 
L 330.735344 348.949307 
L 333.637583 382.172268 
L 336.539823 343.680586 
L 339.442062 342.798784 
L 342.344301 378.361379 
L 345.246541 370.725184 
L 348.14878 381.047216 
L 351.05102 385.100808 
L 353.953259 413.063443 
L 356.855498 382.292146 
L 359.757738 410.97356 
L 362.659977 347.90945 
L 365.562216 411.12143 
L 368.464456 337.748571 
L 371.366695 387.6983 
L 374.268935 368.978098 
L 377.171174 360.89886 
L 380.073413 385.041885 
L 382.975653 359.153389 
L 385.877892 413.143241 
L 388.780132 339.435758 
L 391.682371 392.468629 
L 394.58461 455.978672 
L 397.48685 305.664088 
L 400.389089 410.306492 
L 403.291328 386.164649 
L 406.193568 412.85189 
L 409.095807 290.16227 
L 411.998047 104.06767 
L 414.900286 399.550667 
L 417.802525 385.718221 
L 420.704765 319.58536 
L 423.607004 424.741148 
L 426.509243 382.859816 
L 429.411483 420.298847 
L 432.313722 345.852542 
L 435.215962 387.062382 
L 438.118201 390.199747 
L 441.02044 356.98011 
L 443.92268 311.918674 
L 446.824919 339.070178 
L 449.727159 357.650706 
L 452.629398 403.936291 
L 455.531637 365.577805 
L 458.433877 393.958809 
L 461.336116 338.260836 
L 464.238355 386.523913 
L 467.140595 421.705592 
L 470.042834 375.078188 
L 472.945074 397.562241 
L 475.847313 351.111463 
L 478.749552 425.206702 
L 481.651792 363.054432 
L 484.554031 371.231817 
L 487.456271 389.213265 
L 490.35851 329.393549 
L 493.260749 367.893543 
L 496.162989 365.206303 
L 499.065228 375.016571 
L 501.967467 390.860419 
L 504.869707 382.638243 
L 507.771946 415.876795 
L 510.674186 354.41486 
L 513.576425 393.889296 
L 516.478664 409.898222 
L 519.380904 359.072151 
L 522.283143 403.967938 
L 525.185382 343.643572 
L 528.087622 406.564826 
L 530.989861 346.716546 
L 533.892101 425.375287 
L 536.79434 368.038488 
L 539.696579 352.172278 
L 542.598819 419.672902 
L 545.501058 418.627998 
L 548.403298 307.089596 
L 551.305537 426.115741 
L 554.207776 368.624466 
L 557.110016 408.657044 
L 560.012255 300.298058 
L 562.914494 31.909091 
L 565.816734 406.81844 
L 568.718973 370.454942 
L 571.621213 407.734872 
L 574.523452 389.632883 
L 577.425691 427.188596 
L 580.327931 422.669385 
L 583.23017 345.007069 
L 586.13241 410.358518 
L 589.034649 349.327958 
L 591.936888 403.578536 
L 594.839128 340.01635 
L 597.741367 369.312713 
L 600.643606 312.500659 
L 603.545846 418.795293 
L 606.448085 402.438878 
L 609.350325 335.074826 
L 612.252564 403.798483 
L 615.154803 423.693627 
L 618.057043 374.768525 
L 620.959282 417.274218 
L 626.763761 359.395118 
L 629.666 380.226574 
L 632.56824 358.71759 
L 635.470479 371.217652 
L 638.372718 399.573881 
L 641.274958 339.918916 
L 644.177197 362.923095 
L 647.079437 379.834618 
L 649.981676 382.260346 
L 652.883915 391.328994 
L 655.786155 367.194722 
L 658.688394 370.121508 
L 661.590633 411.292905 
L 664.492873 365.65514 
L 667.395112 362.028846 
L 670.297352 388.220386 
L 673.199591 385.223124 
L 676.10183 381.152418 
L 679.00407 387.582648 
L 681.906309 375.80132 
L 684.808549 346.760794 
L 687.710788 395.23338 
L 690.613027 325.263315 
L 693.515267 406.053688 
L 696.417506 382.82322 
L 699.319745 430.483436 
L 702.221985 357.64108 
L 705.124224 427.744933 
L 708.026464 399.993213 
L 710.928703 337.732515 
L 713.830942 138.165268 
L 716.733182 347.41273 
L 719.635421 396.466309 
L 722.53766 347.790117 
L 725.4399 421.913389 
L 728.342139 392.1959 
L 731.244379 397.715614 
L 734.146618 329.078277 
L 737.048857 410.698217 
L 739.951097 408.786092 
L 742.853336 456.332875 
L 745.755576 526.090909 
L 748.657815 376.396147 
L 751.560054 388.873831 
L 754.462294 339.517872 
L 757.364533 327.514929 
L 760.266772 314.492189 
L 763.169012 352.481918 
L 766.071251 309.787658 
L 768.973491 388.156032 
L 771.87573 339.455114 
L 774.777969 363.299009 
L 777.680209 381.415522 
L 780.582448 366.110097 
L 783.484688 355.194119 
L 783.484688 355.194119 
" style="fill:none;stroke:#008fd5;stroke-width:4;"/>
   </g>
   <g id="patch_3">
    <path d="M 31.804688 550.8 
L 31.804688 7.2 
" style="fill:none;stroke:#f0f0f0;stroke-linecap:square;stroke-linejoin:miter;stroke-width:3;"/>
   </g>
   <g id="patch_4">
    <path d="M 783.484687 550.8 
L 783.484687 7.2 
" style="fill:none;stroke:#f0f0f0;stroke-linecap:square;stroke-linejoin:miter;stroke-width:3;"/>
   </g>
   <g id="patch_5">
    <path d="M 31.804688 550.8 
L 783.484688 550.8 
" style="fill:none;stroke:#f0f0f0;stroke-linecap:square;stroke-linejoin:miter;stroke-width:3;"/>
   </g>
   <g id="patch_6">
    <path d="M 31.804688 7.2 
L 783.484688 7.2 
" style="fill:none;stroke:#f0f0f0;stroke-linecap:square;stroke-linejoin:miter;stroke-width:3;"/>
   </g>
   <g id="legend_1">
    <g id="patch_7">
     <path d="M 738.122187 29.878125 
L 776.484687 29.878125 
Q 778.484687 29.878125 778.484687 27.878125 
L 778.484687 14.2 
Q 778.484687 12.2 776.484687 12.2 
L 738.122187 12.2 
Q 736.122187 12.2 736.122187 14.2 
L 736.122187 27.878125 
Q 736.122187 29.878125 738.122187 29.878125 
z
" style="fill:#f0f0f0;opacity:0.8;stroke:#cccccc;stroke-linejoin:miter;stroke-width:0.5;"/>
    </g>
    <g id="line2d_41">
     <path d="M 740.122187 20.298438 
L 760.122187 20.298438 
" style="fill:none;stroke:#008fd5;stroke-width:4;"/>
    </g>
    <g id="line2d_42"/>
    <g id="text_12">
     <!-- 0 -->
     <g transform="translate(768.122187 23.798438)scale(0.1 -0.1)">
      <use xlink:href="#DejaVuSans-48"/>
     </g>
    </g>
   </g>
  </g>
 </g>
 <defs>
  <clipPath id="p323aed4785">
   <rect height="543.6" width="751.68" x="31.804688" y="7.2"/>
  </clipPath>
 </defs>
</svg>